<svg width="44" height="48" viewBox="0 0 44 48" fill="none" xmlns="http://www.w3.org/2000/svg">
    <path d="M44 11V40C44 44.4 40.4 48 36 48H21.4C19.24 48 17.2 47.14 15.7 45.62L0 29.66C0 29.66 2.52 27.2 2.6 27.16C3.04 26.78 3.58 26.58 4.18 26.58C4.62 26.58 5.02 26.7 5.38 26.9C5.46 26.92 14 31.82 14 31.82V8C14 6.34 15.34 5 17 5C18.66 5 20 6.34 20 8V22H22V3C22 1.34 23.34 0 25 0C26.66 0 28 1.34 28 3V22H30V5C30 3.34 31.34 2 33 2C34.66 2 36 3.34 36 5V22H38V11C38 9.34 39.34 8 41 8C42.66 8 44 9.34 44 11Z" fill="#575B64" />
</svg>